<svg xmlns="http://www.w3.org/2000/svg" width="29.587" height="30" viewBox="0 0 29.587 30" fill="none">
  <path d="M 14.793 0 C 22.963 0 29.587 6.716 29.587 15 C 29.587 23.284 22.963 30 14.793 30 C 6.623 30 0 23.284 0 15 C 0 6.716 6.623 0 14.793 0 Z M 15.659 9.375 C 15.653 9.68 15.646 9.986 15.64 10.291 C 15.64 11.477 15.817 13.047 15.179 13.602 C 14.516 14.178 12.237 14.334 11.702 13.524 C 11.33 12.963 11.481 11.579 11.49 10.68 L 7.859 10.68 L 7.859 14.362 C 8.922 14.351 10.553 14.159 11.029 14.771 C 11.44 15.299 11.526 17.912 10.933 18.278 C 10.69 18.427 8.807 18.342 8.339 18.336 L 8.32 21.278 C 9.287 21.284 10.254 21.291 11.221 21.297 C 11.215 20.613 11.076 18.837 11.356 18.453 C 11.763 17.891 14.284 18.093 15.313 18.102 C 15.304 16.649 15.032 14.351 15.87 13.719 C 16.438 13.291 19.311 13.258 19.674 13.856 C 19.849 14.144 19.756 16.064 19.751 16.603 L 22.652 16.603 L 22.652 13.661 C 21.957 13.667 20.377 13.799 19.982 13.505 C 19.439 13.101 19.647 10.422 19.655 9.395 C 18.323 9.388 16.991 9.381 15.659 9.375 Z" fill="currentColor" fill-rule="evenodd"></path>
</svg>
